<?xml version="1.0" encoding="UTF-8" standalone="no"?>
<svg
   xmlns:dc="http://purl.org/dc/elements/1.1/"
   xmlns:cc="http://creativecommons.org/ns#"
   xmlns:rdf="http://www.w3.org/1999/02/22-rdf-syntax-ns#"
   xmlns:svg="http://www.w3.org/2000/svg"
   xmlns="http://www.w3.org/2000/svg"
   xmlns:xlink="http://www.w3.org/1999/xlink"
   xmlns:sodipodi="http://sodipodi.sourceforge.net/DTD/sodipodi-0.dtd"
   xmlns:inkscape="http://www.inkscape.org/namespaces/inkscape"
   id="svg3241"
   viewBox="0 0 1318.474 791.83131"
   version="1.1"
   inkscape:version="0.48.4 r9939"
   width="100%"
   height="100%"
   sodipodi:docname="canon.svg">
  <sodipodi:namedview
     pagecolor="#ffffff"
     bordercolor="#666666"
     borderopacity="1"
     objecttolerance="10"
     gridtolerance="10"
     guidetolerance="10"
     inkscape:pageopacity="0"
     inkscape:pageshadow="2"
     inkscape:window-width="1440"
     inkscape:window-height="834"
     id="namedview88"
     showgrid="false"
     inkscape:zoom="0.16265151"
     inkscape:cx="777.38805"
     inkscape:cy="440.78176"
     inkscape:window-x="0"
     inkscape:window-y="27"
     inkscape:window-maximized="1"
     inkscape:current-layer="svg3241"
     fit-margin-top="0"
     fit-margin-left="0"
     fit-margin-right="0"
     fit-margin-bottom="0" />
  <defs
     id="defs3243">
    <linearGradient
       id="linearGradient16778"
       y2="1151"
       gradientUnits="userSpaceOnUse"
       y1="1061"
       x2="996.17999"
       x1="898.07001">
      <stop
         id="stop16774"
         stop-color="#fff"
         offset="0" />
      <stop
         id="stop16776"
         stop-color="#fff"
         stop-opacity="0"
         offset="1" />
    </linearGradient>
    <linearGradient
       id="linearGradient16786"
       y2="1140.4"
       gradientUnits="userSpaceOnUse"
       y1="1066.4"
       x2="1114"
       x1="964.03998">
      <stop
         id="stop16782"
         stop-color="#fff"
         offset="0" />
      <stop
         id="stop16784"
         stop-color="#fff"
         stop-opacity="0"
         offset="1" />
    </linearGradient>
    <linearGradient
       id="linearGradient16802"
       y2="1144.3"
       gradientUnits="userSpaceOnUse"
       y1="1070.3"
       x2="906.92999"
       x1="840.07001">
      <stop
         id="stop16798"
         stop-color="#fff"
         offset="0" />
      <stop
         id="stop16800"
         stop-color="#fff"
         stop-opacity="0"
         offset="1" />
    </linearGradient>
    <linearGradient
       id="linearGradient16794"
       y2="1119.8"
       gradientUnits="userSpaceOnUse"
       y1="1087.8"
       x2="1143.4"
       x1="1108.6">
      <stop
         id="stop16790"
         stop-color="#fff"
         offset="0" />
      <stop
         id="stop16792"
         stop-color="#fff"
         stop-opacity="0"
         offset="1" />
    </linearGradient>
    <linearGradient
       id="linearGradient16810"
       y2="1131.9"
       gradientUnits="userSpaceOnUse"
       y1="1069.9"
       x2="840.88"
       x1="767.01001">
      <stop
         id="stop16806"
         stop-color="#fff"
         offset="0" />
      <stop
         id="stop16808"
         stop-color="#fff"
         stop-opacity="0"
         offset="1" />
    </linearGradient>
    <linearGradient
       id="linearGradient16826"
       y2="1061.4"
       gradientUnits="userSpaceOnUse"
       y1="1007.4"
       x2="942.62"
       x1="910.15002">
      <stop
         id="stop16822"
         stop-color="#fff"
         offset="0" />
      <stop
         id="stop16824"
         stop-color="#fff"
         stop-opacity="0"
         offset="1" />
    </linearGradient>
    <linearGradient
       id="linearGradient16834"
       y2="1062.2"
       gradientUnits="userSpaceOnUse"
       y1="1006.2"
       x2="1019"
       x1="949.96997">
      <stop
         id="stop16830"
         stop-color="#fff"
         offset="0" />
      <stop
         id="stop16832"
         stop-color="#fff"
         stop-opacity="0"
         offset="1" />
    </linearGradient>
    <linearGradient
       id="linearGradient16818"
       y2="1051.5"
       gradientUnits="userSpaceOnUse"
       y1="983.46002"
       x2="894.01001"
       x1="838.03003">
      <stop
         id="stop16814"
         stop-color="#fff"
         offset="0" />
      <stop
         id="stop16816"
         stop-color="#fff"
         stop-opacity="0"
         offset="1" />
    </linearGradient>
    <linearGradient
       id="linearGradient16842"
       y2="1054"
       gradientUnits="userSpaceOnUse"
       y1="1014"
       x2="1075"
       x1="1026.3">
      <stop
         id="stop16838"
         stop-color="#fff"
         offset="0" />
      <stop
         id="stop16840"
         stop-color="#fff"
         stop-opacity="0"
         offset="1" />
    </linearGradient>
    <linearGradient
       id="linearGradient16850"
       y2="1039.1"
       gradientUnits="userSpaceOnUse"
       y1="1033.1"
       x2="1095.4"
       x1="1056.8">
      <stop
         id="stop16846"
         stop-color="#fff"
         offset="0" />
      <stop
         id="stop16848"
         stop-color="#fff"
         stop-opacity="0"
         offset="1" />
    </linearGradient>
    <linearGradient
       id="linearGradient16866"
       y2="1075"
       gradientUnits="userSpaceOnUse"
       y1="933.03003"
       x2="972.65002"
       x1="922.01001">
      <stop
         id="stop16862"
         stop-color="#fff"
         offset="0" />
      <stop
         id="stop16864"
         stop-color="#fff"
         stop-opacity="0"
         offset="1" />
    </linearGradient>
    <linearGradient
       id="linearGradient16858"
       y2="986.48999"
       gradientUnits="userSpaceOnUse"
       y1="986.48999"
       x2="1037.9"
       x1="886.39001">
      <stop
         id="stop16854"
         offset="0" />
      <stop
         id="stop16856"
         stop-opacity="0"
         offset="1" />
    </linearGradient>
    <linearGradient
       id="linearGradient16874"
       y2="1042.5"
       gradientUnits="userSpaceOnUse"
       y1="926.52002"
       x2="965.04999"
       x1="971.01001">
      <stop
         id="stop16870"
         stop-color="#fff"
         offset="0" />
      <stop
         id="stop16872"
         stop-color="#fff"
         stop-opacity="0"
         offset="1" />
    </linearGradient>
    <linearGradient
       id="linearGradient16754"
       x1="737.09998"
       xlink:href="#linearGradient16724"
       gradientUnits="userSpaceOnUse"
       x2="924.67999"
       y1="447.73001"
       y2="447.73001" />
    <linearGradient
       id="linearGradient16724">
      <stop
         id="stop16726"
         stop-color="#2a221c"
         offset="0" />
      <stop
         id="stop16728"
         stop-color="#b56900"
         stop-opacity="0"
         offset="1" />
    </linearGradient>
    <linearGradient
       id="linearGradient16666"
       y2="307.91"
       gradientUnits="userSpaceOnUse"
       y1="392.76999"
       x2="966.40002"
       x1="1016.8">
      <stop
         id="stop16662"
         stop-color="#501e0f"
         offset="0" />
      <stop
         id="stop16664"
         stop-color="#c68e39"
         offset="1" />
    </linearGradient>
    <linearGradient
       id="linearGradient16730"
       x1="1078.6"
       xlink:href="#linearGradient16724"
       gradientUnits="userSpaceOnUse"
       x2="1133"
       y1="313.31"
       y2="313.31" />
    <linearGradient
       inkscape:collect="always"
       xlink:href="#linearGradient16724"
       id="linearGradient4043"
       gradientUnits="userSpaceOnUse"
       x1="737.09998"
       y1="447.73001"
       x2="924.67999"
       y2="447.73001" />
    <linearGradient
       inkscape:collect="always"
       xlink:href="#linearGradient16666"
       id="linearGradient4045"
       gradientUnits="userSpaceOnUse"
       x1="1016.8"
       y1="392.76999"
       x2="966.40002"
       y2="307.91" />
    <linearGradient
       inkscape:collect="always"
       xlink:href="#linearGradient16724"
       id="linearGradient4047"
       gradientUnits="userSpaceOnUse"
       x1="1078.6"
       y1="313.31"
       x2="1133"
       y2="313.31" />
    <linearGradient
       inkscape:collect="always"
       xlink:href="#linearGradient16778"
       id="linearGradient4049"
       gradientUnits="userSpaceOnUse"
       x1="898.07001"
       y1="1061"
       x2="996.17999"
       y2="1151" />
    <linearGradient
       inkscape:collect="always"
       xlink:href="#linearGradient16786"
       id="linearGradient4051"
       gradientUnits="userSpaceOnUse"
       x1="964.03998"
       y1="1066.4"
       x2="1114"
       y2="1140.4" />
    <linearGradient
       inkscape:collect="always"
       xlink:href="#linearGradient16802"
       id="linearGradient4053"
       gradientUnits="userSpaceOnUse"
       x1="840.07001"
       y1="1070.3"
       x2="906.92999"
       y2="1144.3" />
    <linearGradient
       inkscape:collect="always"
       xlink:href="#linearGradient16794"
       id="linearGradient4055"
       gradientUnits="userSpaceOnUse"
       x1="1108.6"
       y1="1087.8"
       x2="1143.4"
       y2="1119.8" />
    <linearGradient
       inkscape:collect="always"
       xlink:href="#linearGradient16810"
       id="linearGradient4057"
       gradientUnits="userSpaceOnUse"
       x1="767.01001"
       y1="1069.9"
       x2="840.88"
       y2="1131.9" />
    <linearGradient
       inkscape:collect="always"
       xlink:href="#linearGradient16826"
       id="linearGradient4059"
       gradientUnits="userSpaceOnUse"
       x1="910.15002"
       y1="1007.4"
       x2="942.62"
       y2="1061.4" />
    <linearGradient
       inkscape:collect="always"
       xlink:href="#linearGradient16834"
       id="linearGradient4061"
       gradientUnits="userSpaceOnUse"
       x1="949.96997"
       y1="1006.2"
       x2="1019"
       y2="1062.2" />
    <linearGradient
       inkscape:collect="always"
       xlink:href="#linearGradient16818"
       id="linearGradient4063"
       gradientUnits="userSpaceOnUse"
       x1="838.03003"
       y1="983.46002"
       x2="894.01001"
       y2="1051.5" />
    <linearGradient
       inkscape:collect="always"
       xlink:href="#linearGradient16842"
       id="linearGradient4065"
       gradientUnits="userSpaceOnUse"
       x1="1026.3"
       y1="1014"
       x2="1075"
       y2="1054" />
    <linearGradient
       inkscape:collect="always"
       xlink:href="#linearGradient16850"
       id="linearGradient4067"
       gradientUnits="userSpaceOnUse"
       x1="1056.8"
       y1="1033.1"
       x2="1095.4"
       y2="1039.1" />
    <linearGradient
       inkscape:collect="always"
       xlink:href="#linearGradient16866"
       id="linearGradient4069"
       gradientUnits="userSpaceOnUse"
       x1="922.01001"
       y1="933.03003"
       x2="972.65002"
       y2="1075" />
    <linearGradient
       inkscape:collect="always"
       xlink:href="#linearGradient16858"
       id="linearGradient4071"
       gradientUnits="userSpaceOnUse"
       x1="886.39001"
       y1="986.48999"
       x2="1037.9"
       y2="986.48999" />
    <linearGradient
       inkscape:collect="always"
       xlink:href="#linearGradient16874"
       id="linearGradient4073"
       gradientUnits="userSpaceOnUse"
       x1="971.01001"
       y1="926.52002"
       x2="965.04999"
       y2="1042.5" />
  </defs>
  <metadata
     id="metadata86">
    <rdf:RDF>
      <cc:Work>
        <dc:format>image/svg+xml</dc:format>
        <dc:type
           rdf:resource="http://purl.org/dc/dcmitype/StillImage" />
        <cc:license
           rdf:resource="http://creativecommons.org/licenses/publicdomain/" />
        <dc:publisher>
          <cc:Agent
             rdf:about="http://openclipart.org/">
            <dc:title>Openclipart</dc:title>
          </cc:Agent>
        </dc:publisher>
        <dc:title></dc:title>
      </cc:Work>
      <cc:License
         rdf:about="http://creativecommons.org/licenses/publicdomain/">
        <cc:permits
           rdf:resource="http://creativecommons.org/ns#Reproduction" />
        <cc:permits
           rdf:resource="http://creativecommons.org/ns#Distribution" />
        <cc:permits
           rdf:resource="http://creativecommons.org/ns#DerivativeWorks" />
      </cc:License>
    </rdf:RDF>
  </metadata>
  <g
     id="g3999"
     transform="translate(267.36245,84.769612)">
    <g
       transform="matrix(1.4703102,0,0,1.4703102,-4.0019573,-322.34843)"
       id="layer1">
      <g
         transform="translate(-807.29,-87.031)"
         id="g16082">
        <path
           inkscape:connector-curvature="0"
           d="m 745.55,525.07 c -5.1634,-5.5641 -11.089,-15.731 -13.758,-23.606 -3.1094,-9.1733 -3.8277,-28.442 -1.4938,-40.073 4.0983,-20.425 21.924,-54.62 36.717,-70.433 6.6523,-7.1113 6.6619,-7.3682 0.69593,-18.698 -4.0696,-7.7288 -18.496,-22.517 -24.601,-25.219 -5.2112,-2.3058 -5.9,-5.0889 -1,-4.0401 16.555,3.5433 24.109,10.02 33.257,28.515 l 3.7354,7.5518 8.1288,-5.3695 c 10.138,-6.6964 38.855,-20.902 52.074,-25.759 11.826,-4.3452 26.645,-8.2917 46.877,-12.483 19.071,-3.9513 33.186,-8.2441 59.178,-17.998 11.55,-4.3343 27.975,-10.316 36.5,-13.294 30.72697,-10.731 32.37397,-11.641 56.35297,-31.129 21.891,-17.792 28.457,-22.182 35.298,-23.603 15.142,-3.1435 30.934,2.8096 46.184,17.41 20.024,19.171 29.062,44.165 26.206,72.476 -1.8257,18.103 -2.9555,24.043 -5.5455,29.154 -4.1867,8.2621 -7.7331,10.331 -26.496,15.454 -24.629,6.7254 -62.234,30.802 -98,62.744 -5.225,4.6664 -18.04997,16.709 -28.49997,26.761 -23.695,22.792 -39.651,36.237 -54.653,46.05 -46.058,33.129 -157.44,30.828 -187.16,5.5878 z"
           id="path15646-7" />
        <path
           inkscape:connector-curvature="0"
           style="fill:url(#linearGradient4043)"
           d="m 903.12,522.16 c 11.359,-6.1603 22.379,-12.658 21.504,-12.68 -1.8424,-0.0448 -15.022,5.4924 -24.943,10.48 -6.0208,3.0265 -11.371,5.5028 -11.888,5.5028 -2.2251,0 -0.53552,-3.3703 5.3086,-10.59 17.613,-21.757 21.094,-26.459 24.284,-32.795 4.1504,-8.2439 4.3482,-10.991 0.95154,-13.217 -9.0228,-5.912 -38.937,1.8075 -57.758,14.905 -20.527,14.285 -27.213,14.474 -13.945,0.39458 3.7307,-3.9588 8.0944,-8.9978 9.697,-11.198 1.6026,-2.2 11.154,-12.342 21.225,-22.537 19.802,-20.047 25.193,-26.51 27.794,-33.321 1.5263,-3.9966 1.5385,-4.6692 0.13427,-7.3848 -3.4368,-6.646 -13.84,-7.9655 -29.902,-3.7924 -12.678,3.2941 -51.302,18.566 -60.959,24.104 -8.0088,4.5925 -9.773,5.1946 -9.773,3.3353 0,-2.1567 4.2861,-7.0451 12.327,-14.06 13.488,-11.766 41.405,-38.955 46.119,-44.916 6.0848,-7.6944 9.346,-14.535 7.7095,-16.172 -1.6018,-1.6018 -15.06,-1.481 -21.156,0.18993 -8.3012,2.2754 -28.662,11.118 -39.582,17.191 -33.033,7.8309 -73.079,58.769 -73.179,91.363 0.0772,19.018 -0.37077,35.726 10.975,47.998 41.212,31.127 115.18,28.824 155.05,7.1992 z"
           id="path15592-8" />
        <path
           inkscape:connector-curvature="0"
           style="fill:url(#linearGradient4045)"
           d="m 933.75,501.46 c 3.0097,0 5.3858,-1.2958 13.139,-7.1656 13.457,-10.188 26.041,-20.967 53.465,-45.8 34.894,-31.597 43.402,-38.469 70,-56.547 19.111,-12.989 36.869,-20.482 48.564,-20.491 4.9123,-0.004 9.976,-2.559 12.286,-6.1985 3.2972,-5.1958 7.8528,-12.881 7.7302,-24.684 -0.3406,-32.773 -15.267,-62.095 -41.464,-77.198 -9.3947,-5.4164 -17.096,-7.3974 -22.829,-5.872 -5.8066,1.545 -9.2251,4.2395 -23.586,18.59 -28.726,28.706 -41.878,34.866 -127.16,59.548 -36.408,10.538 -48.676,14.454 -46.5,14.843 2.8794,0.51574 2.9526,0.67477 2.8445,6.1761 -0.20007,10.177 -5.5886,19.844 -18.647,33.45 -4.5332,4.7236 -11.842,11.539 -16.242,15.144 -4.4,3.6059 -8.6579,7.1509 -9.4619,7.8778 -0.80405,0.72693 4.2786,-1.1622 11.295,-4.198 29.586,-12.801 48.453,-16.411 58.682,-11.226 6.2354,3.1605 8.3231,7.218 8.2983,16.128 -0.0348,12.504 -5.3571,20.104 -28.314,40.432 -13.322,11.796 -21.973,20.19 -20.809,20.19 0.3283,0 6.0896,-2.6625 12.803,-5.9168 14.364,-6.9627 23.7,-9.5738 34.006,-9.5109 8.8499,0.054 14.898,2.6334 18.098,7.718 4.3094,6.8473 0.0592,18.38 -11.611,31.506 -3.568,4.0132 -6.4874,7.4405 -6.4874,7.6163 0,0.1758 4.0998,-0.74521 9.1106,-2.0467 5.0108,-1.30149 10.764,-2.3663 12.785,-2.3663 z"
           id="path15590-5" />
        <path
           inkscape:connector-curvature="0"
           d="m 1136,338.57 c 0.285,2.875 -2.0834,15.969 -4.9658,21.619 -3.3856,6.6364 -6.3125,8.0722 -12.637,6.1988 -4.8524,-1.4374 -14.062,-9.3888 -21.098,-18.214 -21.776,-27.319 -28.28,-44.655 -27.088,-72.207 0.5168,-11.953 0.7433,-13.138 2.8356,-14.832 6.9166,-5.6007 27.414,7.7587 39.754,19.172 21.453,19.843 22.568,51.604 23.124,54.153"
           id="path16722" />
        <path
           inkscape:connector-curvature="0"
           style="fill:url(#linearGradient4047)"
           d="m 1132.9,337.93 c 0.7115,-2.8994 -2.1326,-34.391 -19.822,-50.427 -2.8876,-2.6176 -15.25,-10.552 -20.917,-13.398 -2.842,-1.4273 -7.0715,-2.8996 -9.3988,-3.2717 l -4.2314,-0.67663 0.5585,10.902 c 0.7757,15.143 4.3807,26.373 14.093,43.902 10.68,19.274 20.665,31.5 25.727,31.5 5.1489,0 12.146,-8.6006 13.584,-14.5"
           id="path15588-7" />
        <path
           inkscape:connector-curvature="0"
           d="m 858.36,481.96 c 5.2641,-3.7065 7.0596,-5.4014 5.25,-4.956 -7.541,1.8562 1.1006,-8.2898 24.25,-28.472 17.754,-15.478 24.143,-24.64 24.143,-34.621 0,-8.8598 -4.5694,-14.483 -13.074,-16.09 -4.7455,-0.89648 -17.643,1.2331 -27.946,4.6143 -9.5994,3.1502 -33.376,13.108 -32.763,13.721 0.2161,0.21611 6.1053,-1.886 13.087,-4.6714 30.036,-11.983 51.17,-13.466 56.098,-3.9362 2.0533,3.9706 1.8006,7.643 -0.9229,13.415 -3.3184,7.0325 -6.3433,10.563 -26.986,31.5 -10.032,10.175 -19.548,20.3 -21.146,22.5 -1.5978,2.2 -5.3989,6.6484 -8.447,9.8852 -6.5267,6.931 -4.5112,6.2425 8.4581,-2.8893 z"
           id="path15492-8" />
      </g>
      <g
         transform="translate(-945.85,-534.91)"
         id="g16054">
        <path
           inkscape:connector-curvature="0"
           d="m 961.01,1209 c -73.733,-2.601 -111.93,-6.4043 -144.7,-14.409 -13.045,-3.186 -34.045,-10.11 -43.689,-14.405 l -5.89,-2.6229 0.60697,-6.4999 c 0.38046,-4.0743 1.9635,-9.7469 4.242,-15.201 1.9992,-4.7854 5.8787,-15.901 8.6211,-24.701 7.1958,-23.091 12.635,-34.098 20.957,-42.411 4.5752,-4.5699 11.179,-8.7048 16.979,-10.631 4.4107,-1.465 4.9302,-1.974 5.9012,-5.7822 7.0344,-27.586 12.111,-39.037 21.353,-48.168 4.8842,-4.825 7.4305,-6.4842 12.619,-8.2226 11.422,-3.8271 21.438,-5.5137 30.509,-5.1375 l 8.4917,0.3523 -0.0255,-5.5 -0.0255,-5.5 -6.9107,-3.3319 c -5.3703,-2.5892 -7.3376,-4.1495 -8.8259,-7 -1.0534,-2.0175 -2.7026,-5.1556 -3.665,-6.9737 0.1499,-9.3822 -1.0864,-16.223 34.963,-14.716 12.134,0.50718 30.639,4.4802 44.231,4.583 11.655,0.0881 26.741,-0.3608 40.515,-1.7434 14.47803,-1.4533 28.63503,-1.9851 42.07603,1.1862 5.6569,2.6916 11.11,8.9282 8.2054,13.013 -3.77,5.3027 -9.899,10.583 -15.788,13.601 -3.9666,2.0331 -4.0469,2.1735 -3.1526,5.506 0.537,2.0008 1.3657,2.1546 14.236,2.6422 15.944,0.604 35.816,4.3733 43.945,8.3355 6.119,2.9824 16.282,14.07 19.556,21.335 1.1309,2.5096 3.4437,10.601 5.1396,17.98 l 3.0834,13.418 4.2335,1.5436 c 10.001,3.6466 18.361,12.635 25.688,27.621 11.056,22.612 12.945,27.894 18.6,52 3.0374,12.946 3.3098,27.726 0.5876,31.884 -2.5199,3.8491 -9.923,6.8885 -26.833,11.016 -27.426,6.6951 -46.191,9.5149 -90.426,13.588 -18.723,1.7241 -71.64203,4.3492 -76.40803,3.7903 -0.825,-0.097 -4.875,-0.295 -9,-0.4405 z"
           id="path15646-2" />
        <path
           inkscape:connector-curvature="0"
           d="m 1007.5,1206.1 c 27.582,-0.9881 80.751,-6.473 102.18,-10.54 16.964,-3.2206 38.973,-8.8239 44.824,-11.412 7.3823,-3.2648 9.0146,-6.0948 8.9403,-15.5 -0.055,-6.9617 -1.8173,-16.296 -6.5651,-34.771 -3.1393,-12.216 -16.208,-40.392 -22.61,-48.747 -4.5847,-5.983 -11.702,-11.54 -17.474,-13.645 l -4.2335,-1.5436 -3.0834,-13.418 c -1.6959,-7.3796 -4.0087,-15.471 -5.1396,-17.98 -3.2741,-7.2652 -13.437,-18.353 -19.556,-21.335 -8.1292,-3.9622 -28.001,-7.7315 -43.945,-8.3355 -12.871,-0.4876 -13.699,-0.6414 -14.236,-2.6422 -1.3738,-5.1191 -0.6799,-7.5313 2.6526,-9.2218 25.454,-21.315 3.0932,-26.573 -32.244,-24.208 -9.5817,0.64133 -30.7,4.9868 -40.764,4.9537 -7.4345,-0.0244 -37.345,-6.6756 -44.503,-6.4611 -41.701,1.2495 -29.851,10.672 -29.957,13.495 1.7701,2.5728 3.2184,5.1082 3.2184,5.6342 0,0.52607 3.1386,2.47 6.9747,4.3198 l 6.9747,3.3633 0.0253,7.7558 0.0253,7.7559 -8.3425,-0.6413 c -9.0167,-0.6931 -18.419,0.8142 -30.658,4.9148 -5.1884,1.7384 -7.7347,3.3976 -12.619,8.2226 -9.2428,9.1308 -14.319,20.582 -21.353,48.168 -0.97108,3.8082 -1.4905,4.3172 -5.9012,5.7822 -5.8,1.9265 -12.404,6.0614 -16.979,10.631 -8.3222,8.3125 -13.762,19.32 -20.957,42.411 -2.7424,8.8 -6.573,19.825 -8.5126,24.5 -1.9396,4.675 -3.8342,10.622 -4.2102,13.215 l -0.68369,4.7148 5.8582,2.6089 c 9.6146,4.2817 30.629,11.208 43.657,14.391 29.043,7.0933 59.269,10.567 113.7,13.066 40.261,1.8483 38.234,1.8349 75.49999,0.5 z"
           id="path15644-7" />
        <path
           inkscape:connector-curvature="0"
           d="m 938.51,1198.6 c -9.35,-0.4808 -21.125,-1.1629 -26.167,-1.5159 l -9.1675,-0.6419 -0.72353,-8.6628 c -2.0768,-24.866 3.269,-63.626 11.219,-81.34 l 2.6131,-5.8228 h 21.512 c 11.831,0 31.421,-0.5077 43.533,-1.1281 20.31203,-1.0406 22.11703,-0.9968 23.25803,0.5633 2.1081,2.8829 7.3935,20.483 9.9297,33.065 3.2721,16.233 4.6581,37.208 3.4434,52.111 -0.529,6.491 -1.3187,12.158 -1.7548,12.595 -1.2,1.2001 -58.35403,1.7724 -77.69503,0.7781 z"
           id="path15642-9" />
        <path
           inkscape:connector-curvature="0"
           style="fill:url(#linearGradient4049)"
           d="m 1014.2,1195.8 c 1.5342,-1.5341 2.4823,-22.723 1.5952,-35.648 -0.4915,-7.1612 -1.984,-18.42 -3.3167,-25.02 -2.5179,-12.469 -7.8232,-30.178 -9.8859,-32.999 -1.0738,-1.4685 -3.0719,-1.5236 -20.657,-0.5698 -10.707,0.5808 -29.419,1.0589 -41.581,1.0624 l -22.113,0.01 -2.6131,5.8229 c -7.6979,17.153 -13.117,54.524 -11.216,77.347 l 0.72103,8.6559 9.1675,0.6419 c 25.692,1.7988 45.783,2.3456 71.141,1.9362 15.38597,-0.2483 28.32697,-0.8044 28.75797,-1.2356 z"
           id="path15640-5" />
        <path
           inkscape:connector-curvature="0"
           d="m 1025.7,1169.9 c -0.6662,-35.509 -3.2573,-51.632 -10.616,-66.056 -1.1678,-2.2891 -2.1233,-4.5831 -2.1233,-5.0978 0,-0.5147 3.7125,-1.2311 8.25,-1.5921 20.494,-1.6305 42.924,-6.0402 61.073,-12.007 4.3028,-1.4147 8.3528,-2.2654 9,-1.8905 7.6062,4.4054 14.023,12.936 17.935,23.846 4.5546,12.7 5.9209,23.808 6.4752,52.644 0.4883,25.408 0.4252,26.671 -1.3607,27.231 -7.4903,2.3488 -40.674,6.4806 -80.992,10.084 l -7.1196,0.6364 z"
           id="path15638-4" />
        <path
           inkscape:connector-curvature="0"
           style="fill:url(#linearGradient4051)"
           d="m 1061.5,1192.1 c 22.151,-2.1761 45.483,-5.4522 50.878,-7.1441 1.7897,-0.5613 1.8533,-1.7481 1.3514,-25.231 -0.5707,-26.7 -2.0575,-38.335 -6.4712,-50.642 -3.0948,-8.6292 -8.1865,-16.483 -13.324,-20.552 l -3.8912,-3.0818 -8.2714,2.5224 c -19.074,5.8168 -38.196,9.4878 -58.004,11.136 l -7.7324,0.6433 1.5922,3.0792 c 6.7554,13.064 9.4622,30.432 10.109,64.866 l 0.5185,27.613 4.1226,-0.3764 c 2.2674,-0.207 15.373,-1.4815 29.123,-2.8322 z"
           id="path15636-3" />
        <path
           inkscape:connector-curvature="0"
           d="m 871.13,1194 c -13.684,-1.4916 -39.839,-5.7533 -47.622,-7.7593 -4.9755,-1.2825 -5.0016,-1.3106 -5.3231,-5.7288 -0.50297,-6.9122 1.7094,-23.281 4.786,-35.411 5.4223,-21.378 14.387,-39.163 24.175,-47.964 5.6398,-5.0706 6.991,-5.3287 16.362,-3.1248 8.1326,1.9126 24.987,4.2956 36.344,5.1385 l 9.3435,0.6934 -0.50961,2.6137 c -0.28029,1.4375 -1.8929,6.3463 -3.5837,10.908 -6.4537,17.414 -10.276,45.148 -9.3657,67.955 l 0.5688,14.25 -6.3984,-0.1113 c -3.5191,-0.061 -11.969,-0.7185 -18.777,-1.4606 z"
           id="path15634-1" />
        <path
           inkscape:connector-curvature="0"
           style="fill:url(#linearGradient4053)"
           d="m 893.65,1179.9 c -1.1666,-24.482 4.6409,-61.17 11.932,-75.374 l 1.3469,-2.6241 -9.2106,-0.683 c -11.247,-0.8341 -28.022,-3.2129 -36.51,-5.1773 -5.9661,-1.3809 -6.4468,-1.3526 -9.0962,0.5339 -10.989,7.8249 -21.804,28.316 -27.619,52.329 -2.6433,10.916 -5.1587,30.551 -4.2255,32.983 1.1283,2.9404 50.264,11.162 69.638,11.652 l 4.399,0.1113 z"
           id="path15632-2" />
        <path
           inkscape:connector-curvature="0"
           d="m 1126,1172.6 c 0,-6.0657 -0.6829,-17.532 -1.5176,-25.48 -3.2728,-31.165 -9.903,-54.068 -18.481,-63.837 -1.651,-1.8804 -3.0018,-3.945 -3.0018,-4.5879 0,-0.643 1.6136,-1.8433 3.5857,-2.6673 5.003,-2.0904 9.0581,-0.5497 16.369,6.2192 7.4524,6.8995 10.451,11.621 18.618,29.314 8.3952,18.187 13.808,38.169 13.879,51.24 0.065,11.82 -1.0703,13.294 -13.522,17.551 -5.1867,1.7735 -10.893,3.236 -12.68,3.25 l -3.25,0.025 v -11.028 z"
           id="path15630-3" />
        <path
           inkscape:connector-curvature="0"
           style="fill:url(#linearGradient4055)"
           d="m 1141.9,1177.7 c 9.7546,-3.4485 11.614,-5.8615 11.52,-14.947 -0.1156,-11.058 -6.1811,-32.612 -13.857,-49.24 -8.1865,-17.735 -11.163,-22.412 -18.71,-29.399 -6.1956,-5.736 -9.2544,-7.1796 -12.817,-6.0489 -2.0735,0.6581 -2.0679,0.7009 0.4833,3.7328 10.557,12.547 19.47,53.211 19.47,88.833 v 11.108 l 3.25,-0.7096 c 1.7875,-0.3902 6.5849,-1.8885 10.661,-3.3294 z"
           id="path15628-3" />
        <path
           inkscape:connector-curvature="0"
           d="m 800.01,1179.8 c -4.6774,-1.5274 -11.765,-4.0563 -15.75,-5.6198 -7.1568,-2.8078 -7.2456,-2.8875 -7.2456,-6.5032 0,-4.6169 2.4827,-13.061 5.7189,-19.452 1.3727,-2.7107 4.7191,-11.686 7.4366,-19.945 8.5195,-25.894 15.719,-36.489 29.381,-43.242 l 7.3521,-3.6336 9.056,3.8347 c 4.9808,2.1091 9.0559,4.3397 9.0559,4.9571 0,0.6173 -1.8475,2.607 -4.1055,4.4216 -13.593,10.923 -25.905,45.324 -28.555,79.786 -0.742,9.6478 -0.13593,9.3829 -12.344,5.3965 z"
           id="path15626-4" />
        <path
           inkscape:connector-curvature="0"
           style="fill:url(#linearGradient4057)"
           d="m 810.37,1171.9 c 2.8094,-33.545 14.481,-66.997 27.304,-78.256 1.9529,-1.7146 3.3909,-3.2389 3.1956,-3.3874 -0.19525,-0.1484 -3.4454,-1.5606 -7.2226,-3.1383 l -6.8676,-2.8685 -6.3812,3.3085 c -12.645,6.5563 -19.985,17.663 -28.228,42.718 -2.7174,8.2592 -6.0639,17.234 -7.4366,19.945 -2.6447,5.2225 -5.7189,14.636 -5.7189,17.512 0,0.9588 1.2176,2.1802 2.75,2.7586 13.005,4.9084 25.029,9.0634 26.353,9.106 1.284,0.041 1.7325,-1.4915 2.2523,-7.6983 z"
           id="path15624-1" />
        <path
           inkscape:connector-curvature="0"
           d="m 908.01,1092.6 c -12.004,-0.7288 -25.734,-2.4004 -26.568,-3.2345 -0.79037,-0.7903 2.801,-24.326 4.6386,-30.399 1.1429,-3.7768 4.5934,-11.929 7.668,-18.117 l 5.59,-11.25 h 10.586 c 5.8221,-10e-4 16.147,0.7415 22.944,1.651 l 12.359,1.6536 -0.70661,5.099 c -0.38864,2.8044 -1.0979,8.0239 -1.5761,11.599 -0.47821,3.575 -0.8842,14.712 -0.90219,24.75 l -0.0327,18.25 h -2.8491 c -1.567,0 -6.1795,0.1844 -10.25,0.4098 -4.0705,0.2255 -13.476,0.041 -20.901,-0.4098 z"
           id="path15622-1" />
        <path
           inkscape:connector-curvature="0"
           style="fill:url(#linearGradient4059)"
           d="m 936.15,1090.6 h 3.8604 v -17.776 c 0,-15.68 1.1181,-31.54 2.5614,-36.334 0.41002,-1.3619 -1.4093,-1.8639 -11.788,-3.2525 -6.7502,-0.9032 -16.137,-1.641 -20.859,-1.6396 h -8.5856 l -5.59,11.25 c -6.7222,13.529 -9.3744,21.901 -10.919,34.472 -0.94377,7.6796 -0.9157,9.6008 0.14988,10.259 2.635,1.6285 33.932,4.0849 42.92,3.3687 2.4143,-0.1924 6.1268,-0.3499 8.25,-0.3499 z"
           id="path15620-3" />
        <path
           style="fill:#1a1a1a"
           inkscape:connector-curvature="0"
           d="m 948.64,1090.4 c -1.7956,-6.7001 -0.11908,-34.395 2.9359,-48.5 l 1.5703,-7.25 12.182,-0.034 c 11.292,-0.031 24.018,-0.8863 37.846,-2.543 l 5.6646,-0.6786 2.2235,4.3585 c 5.8331,11.434 9.9358,29.61 9.9433,44.053 v 7.6562 l -4.75,0.5892 c -9.8216,1.2182 -57.264,4.5772 -64.883,4.5938 -1.3693,0 -2.3493,-0.8012 -2.7363,-2.2453 z"
           id="path15618-8" />
        <path
           inkscape:connector-curvature="0"
           style="fill:url(#linearGradient4061)"
           d="m 975.51,1089.1 c 12.189,-0.687 32.294,-2.2862 38.75,-3.0823 l 4.75,-0.5857 v -5.6561 c -0.01,-12.461 -4.4545,-31.294 -9.9127,-41.993 -1.9412,-3.8052 -2.502,-4.2333 -4.888,-3.7322 -5.4405,1.1425 -26.016,2.5519 -37.377,2.5602 l -11.682,0.01 -1.5703,7.25 c -3.0272,13.977 -4.6146,38.233 -2.9169,44.573 0.59554,2.2239 0.9243,2.2992 7.7364,1.7719 3.9129,-0.3033 11.614,-0.8047 17.114,-1.1147 z"
           id="path15616-7" />
        <path
           inkscape:connector-curvature="0"
           d="m 850.51,1082.5 c -8.8,-2.1642 -17.012,-4.1505 -18.25,-4.4139 -1.952,-0.4155 -2.25,-1.1108 -2.25,-5.2498 0,-6.4881 2.3732,-15.228 6.5255,-24.032 6.1879,-13.12 20.183,-25.118 33.975,-29.125 2.2,-0.6393 8.05,-1.547 13,-2.017 4.95,-0.47 10.074,-1.1846 11.386,-1.588 2.3521,-0.7229 2.3758,-0.6629 1.6519,4.1689 -0.58375,3.896 -1.6553,5.8869 -5.22,9.6989 -7.984,8.5376 -17.36,31.314 -20.565,49.953 -0.86217,5.0151 -1.5579,6.723 -2.7069,6.6449 -0.85055,-0.058 -8.7464,-1.8759 -17.546,-4.0402 z"
           id="path15614-4" />
        <path
           inkscape:connector-curvature="0"
           style="fill:url(#linearGradient4063)"
           d="m 868.85,1077.2 c 3.495,-18.968 12.625,-40.877 20.578,-49.379 2.521,-2.6952 4.5836,-5.7562 4.5836,-6.8022 0,-1.7637 -0.5993,-1.8584 -8.25,-1.3047 -10.312,0.7463 -15.463,2.1644 -23.91,6.583 -13.22,6.9159 -24.11,21.454 -28.309,37.791 -2.2006,8.5636 -2.0309,11.395 0.71841,11.984 1.2375,0.2654 8.55,2.0261 16.25,3.9125 7.7,1.8865 14.71,3.4779 15.577,3.5364 1.1724,0.079 1.8811,-1.5431 2.7616,-6.3215 z"
           id="path15612-2" />
        <path
           inkscape:connector-curvature="0"
           d="m 1030.1,1084.3 c -0.4948,-1.3015 -1.634,-8.3957 -2.5315,-15.765 -1.8481,-15.174 -3.922,-25.202 -6.6562,-32.185 -2.3438,-5.986 -2.3602,-7.713 -0.073,-7.713 3.1768,0 18.653,-4.8642 19.025,-5.9795 0.4684,-1.4052 6.5693,-0.3046 11.198,2.02 5.5394,2.7821 12.812,11.325 16.576,19.471 3.146,6.8092 10.4,29.833 10.4,33.01 0,0.7485 -0.3529,1.579 -0.7842,1.8456 -0.711,0.4395 -31.646,5.6528 -41.985,7.0756 -3.8322,0.5274 -4.3612,0.3453 -5.1689,-1.779 z"
           id="path15610-7" />
        <path
           inkscape:connector-curvature="0"
           style="fill:url(#linearGradient4065)"
           d="m 1055.7,1080.6 c 9.7884,-1.65 18.143,-3 18.566,-3 1.3981,0 0.8054,-3.6174 -2.3119,-14.111 -5.9197,-19.926 -13.574,-32.122 -23.262,-37.064 l -3.8921,-1.9856 -8.1325,2.572 c -4.473,1.4145 -9.631,2.864 -11.462,3.2211 -2.8376,0.5533 -3.2271,0.961 -2.6354,2.7583 2.8734,8.7274 5.5025,21.151 6.8876,32.546 2.1912,18.027 2.2025,18.063 5.62,18.063 1.554,0 10.834,-1.35 20.623,-3 z"
           id="path15608-7" />
        <path
           inkscape:connector-curvature="0"
           d="m 1085.5,1071.9 c -1.0099,-6.8012 -5.7944,-18.663 -10.797,-26.77 -4.9936,-8.0915 -17.63,-24.48 -18.876,-24.48 -0.4668,0 -0.8486,-0.9276 -0.8486,-2.0613 0,-1.8844 0.4075,-2.005 4.75,-1.4055 24.121,3.3298 35.19,11.143 42.082,29.704 2.609,7.0261 7.3948,23.869 6.9177,24.346 -0.5984,0.5984 -19.166,5.4111 -20.886,5.4138 -1.1872,0 -1.8301,-1.3016 -2.3418,-4.7475 z"
           id="path15606-9" />
        <path
           inkscape:connector-curvature="0"
           style="fill:url(#linearGradient4067)"
           d="m 1100.8,1071 c 6.1326,-1.7159 6.0903,-0.6088 0.6551,-17.17 -5.2326,-15.943 -10.77,-23.345 -21.55,-28.808 -4.8077,-2.4362 -17.197,-5.8222 -19.046,-5.2056 -0.5294,0.1765 1.8567,3.8963 5.3024,8.2664 11.852,15.032 19.701,30.32 21.383,41.649 l 0.6892,4.6425 3.6526,-0.9516 c 2.0089,-0.5234 6.0201,-1.614 8.9138,-2.4237 z"
           id="path15604-3" />
        <path
           inkscape:connector-curvature="0"
           d="m 917.51,1024.9 c -1.65,-0.1394 -5.3625,-0.5093 -8.25,-0.8219 l -5.25,-0.5684 v -11.428 c 0,-7.5997 0.36612,-11.428 1.0929,-11.428 0.6011,0 5.4386,0.8745 10.75,1.9433 25.905,5.2129 75.438,5.4235 97.478,0.4145 3.7512,-0.8526 6.9323,-1.3944 7.069,-1.204 0.9321,1.298 5.7322,19.058 5.2747,19.515 -0.3146,0.3146 -3.1803,1.2428 -6.3681,2.0628 -4.6869,1.2054 -14.695,1.5172 -52.296,1.6294 -25.575,0.076 -47.85,0.025 -49.5,-0.1149 z"
           id="path15602-1" />
        <path
           inkscape:connector-curvature="0"
           style="fill:url(#linearGradient4069)"
           d="m 1015.8,1021.7 c 3.4509,-0.7229 6.5146,-1.7029 6.8081,-2.178 0.2936,-0.475 -0.4911,-4.0458 -1.7437,-7.9352 l -2.2776,-7.0716 -3.5305,0.6765 c -10.391,1.9908 -16.704,2.4832 -39.531,3.0831 -26.787,0.7041 -45.468,-0.3654 -60.878,-3.4854 l -8.6216,-1.7455 v 18.468 l 5.25,0.5684 c 2.8875,0.3126 6.6,0.6825 8.25,0.8219 1.65,0.1395 22.575,0.2218 46.5,0.1829 31.846,-0.052 45.181,-0.4227 49.774,-1.3848 z"
           id="path15600-9" />
        <path
           inkscape:connector-curvature="0"
           style="fill:url(#linearGradient4071)"
           d="m 964.01,999.95 c -20.347,-1.1161 -42.297,-4.3509 -60.435,-8.9064 -9.0517,-2.2734 -10.275,-2.8697 -13.759,-6.7086 -4.6167,-5.0863 -4.5681,-7.5829 0.1941,-9.9618 5.6799,-2.8374 18.559,-2.2843 43.111,1.8516 l 21.389,3.6031 21.5,-1.5823 c 28.626,-2.1068 54.802,-2.9405 58.5,-1.8633 4.5042,1.3122 4.4884,4.571 -0.043,8.8448 -8.4406,7.9605 -23.219,12.726 -44.627,14.391 -11.998,0.9329 -14.334,0.963 -25.83,0.33243 z"
           id="path15598-8" />
        <path
           inkscape:connector-curvature="0"
           style="fill:url(#linearGradient4073)"
           d="m 987.84,997.62 c 20.463,-1.5912 33.831,-5.6583 43.42,-13.211 9.6656,-7.6123 3.9426,-8.048 -53.75,-4.0921 0,0 -15.991,2.0345 -24,1.6457 -7.4262,-0.36051 -22,-3.6741 -22,-3.6741 -12.1,-2.0208 -25.052,-3.672 -28.782,-3.6694 -6.4372,0.004 -13.719,1.9705 -13.717,3.7036 4.3e-4,0.44057 1.4868,2.4707 3.3031,4.5114 2.9083,3.2676 4.4893,4.0085 13.249,6.2086 18.15,4.5585 40.095,7.793 60.447,8.9094 3.025,0.16593 6.4,0.37473 7.5,0.46399 1.1,0.0893 7.5483,-0.26913 14.33,-0.79642 z"
           id="path15596-6" />
      </g>
    </g>
    <g
       transform="matrix(1.2834995,0,0,1.2834995,-571.2463,-42.626675)"
       id="g3991">
      <g
         id="layer1-4"
         transform="matrix(0.51658753,0,0,0.51658753,770.1303,500.41183)">
        <g
           id="g5446"
           transform="matrix(1.1895,0,0,1.1895,479.45,207.56)">
          <path
             style="fill:#ec1800;fill-rule:evenodd;stroke:#ea7c20;stroke-width:2.79299998;stroke-linecap:round;stroke-linejoin:round;stroke-opacity:0.68354007"
             inkscape:connector-curvature="0"
             id="path5448"
             d="m 323.5,-195.69 c -22.526,30.238 -120.47,48.24 -127.31,84.436 -9.4021,17.709 -52.977,40.352 -24.564,59.294 28.414,18.942 30.527,-22.102 31.053,-34.731 0.52598,-18.416 8.8981,-25.707 27.348,-19.992 18.025,5.5827 17.362,2.6188 19.467,8.4069 2.1044,5.788 -10.51,26.851 -9.4577,44.215 3.1572,16.838 19.217,19.198 28.951,5.2543 9.734,-13.9437 1.5276,-19.085 -3.7043,-32.629 -5.2319,-13.544 -8.486,-14.049 -4.3085,-18.758 3.5303,-3.9796 31.158,-11.758 31.158,-1.2347 0,10.524 3.1606,14.209 15.789,16.84 12.628,2.6308 15.24,-8.9449 13.136,-18.416 -2.1044,-9.4713 -18.414,-8.4205 -20.518,-17.365 -2.1048,-8.9449 22.635,-11.586 30.002,-11.06 7.3665,0.52596 17.355,18.428 24.721,28.426 7.3664,9.9973 34.194,7.3743 42.612,-5.7797 8.4189,-13.155 -23.145,-43.146 -41.561,-37.358 -18.416,5.7876 -28.394,-11.052 -32.077,-16.84 -3.6832,-5.7876 5.7718,-16.846 11.559,-12.636 5.788,4.2097 19.466,3.1677 20.518,-7.356 -1.0524,-11.576 -16.835,-15.273 -20.518,-8.4331 -3.2932,6.1161 -8.2695,2.5578 -12.295,-4.2822 z" />
        </g>
      </g>
      <g
         id="g3987">
        <path
           inkscape:connector-curvature="0"
           id="path3985"
           d="m 1047.581,463.53863 21.4652,-0.95098 17.9329,-15.21581 c 0,0 12.227,-6.3852 13.8572,-7.06448 1.6303,-0.67928 16.4385,-5.16251 16.4385,-5.16251 l 43.4738,7.20034 4.3473,5.29836 c 0.1359,0.54342 28.8014,35.72997 28.8014,35.72997 l 9.5099,6.38521 11.9552,-1.2227 c 0,0 19.9708,0.40756 20.6501,0.54342 0.6792,0.13585 11.6835,2.03783 11.6835,2.03783 l -4.0756,6.11349 -12.0912,6.92863 -19.2914,7.06448 -13.5856,1.63026 -133.9534,2.98882 -62.3576,7.47205 -24.04644,0.67928 3.66809,-3.6681 15.48752,-10.18915 -8.01547,-5.84179 34.779,-6.3852 26.0842,-7.33619 5.5701,-3.39639 1.4944,-10.18915 -3.9398,-5.16251 z"
           style="fill:#ffffff;stroke:#000000;stroke-width:1px;stroke-linecap:butt;stroke-linejoin:miter;stroke-opacity:1" />
        <path
           d="m 982.63135,518.70813 c 13.3739,-7.05701 13.2178,-6.86331 8.509,-10.50673 -2.1921,-1.69559 -3.986,-3.47864 -3.986,-3.96216 0,-0.82828 3.8119,-1.72089 11.5591,-2.70962 1.84515,-0.23562 8.60725,-1.7115 15.02975,-3.28061 6.4209,-1.56909 12.8325,-2.85272 14.2477,-2.85272 3.7489,0 23.8344,-6.29739 25.483,-7.99009 0.7719,-0.79358 1.5207,-3.79376 1.6631,-6.66888 0.2233,-4.52303 -0.141,-5.54645 -2.7068,-7.59331 -1.6312,-1.30096 -3.6217,-3.94192 -4.4232,-5.8688 -1.9052,-4.57578 -19.7458,-24.79133 -22.7257,-25.75042 -1.2685,-0.40836 -5.0731,-0.15034 -8.4541,0.57387 -7.4155,1.58718 -10.8848,0.53773 -14.2998,-4.32643 -2.234,-3.18085 -1.8279,-4.76081 0.5912,-2.30705 1.8922,1.91893 11.0792,2.62939 14.6431,1.13257 1.8221,-0.76541 3.3117,-1.77582 3.3117,-2.24561 0,-1.03932 -10.2068,-11.54462 -13.465,-13.8589 -1.2872,-0.91427 -1.7223,-1.66161 -0.9671,-1.66161 2.6576,0 8.4541,3.1028 12.1294,6.49181 2.0432,1.88423 4.1356,3.16207 4.6502,2.84045 1.3067,-0.81889 1.173,-9.0511 -0.1597,-9.88662 -1.3502,-0.84635 -1.4427,-2.77394 -0.1323,-2.77394 1.6341,0 3.3558,5.77267 3.9303,13.18383 0.6202,7.99009 2.2963,10.56238 16.4645,25.28787 l 7.6815,7.98214 8.3384,-0.0332 c 8.1708,-0.0326 8.4165,-0.11569 12.073,-4.08576 6.7484,-7.32732 6.486,-6.03503 5.2552,-25.8256 l -1.1297,-18.17375 -4.0843,-3.58126 -4.0843,-3.58127 3.5559,0.66782 c 3.4736,0.65266 3.556,0.57605 3.556,-3.31529 0,-3.79664 -3.66,-9.53968 -8.7533,-13.73457 -1.4585,-1.20194 -1.4585,-1.35517 0,-1.38336 2.8484,-0.0542 8.7641,4.28523 9.8729,7.24059 1.2706,3.39047 3.2567,2.59254 3.2567,-1.30818 0,-1.52575 0.4214,-2.51015 0.936,-2.1878 0.5146,0.32236 0.6924,12.5854 0.3939,27.25161 -0.4532,22.2978 -0.2935,26.6611 0.9786,26.64231 0.837,-0.0127 5.4604,-3.02619 10.274,-6.69709 11.1341,-8.48951 28.4637,-17.16695 37.7475,-18.90157 10.1302,-1.89218 30.1051,-1.90302 36.1061,-0.0195 14.9575,4.69504 27.7149,9.12916 30.5691,10.62599 5.9555,3.12377 9.7601,2.25935 15.1446,-3.44032 5.78,-6.11815 5.7706,-7.77471 -0.1207,-21.18767 -4.8526,-11.04879 -5.6043,-13.61893 -3.9802,-13.61893 1.2814,0 4.5945,3.21483 12.3172,11.95226 3.9239,4.4399 4.4717,4.69214 10.175,4.69214 3.3153,0 7.4184,0.72927 9.1176,1.62042 3.8559,2.02228 16.4955,17.59121 16.4955,20.31964 0,0.52038 1.1615,3.41213 2.5817,6.4253 4.6589,9.8859 5.3875,13.56474 4.8288,24.39237 -0.8211,15.92165 -6.9443,27.55371 -18.9652,36.02806 -6.7043,4.72466 -25.7201,13.05012 -30.6204,13.40427 -2.3793,0.17129 -8.264,2.28536 -13.0783,4.69575 -22.7387,11.38706 -36.3309,14.46818 -64.0068,14.50865 -22.7683,0.0332 -29.4018,-1.19183 -51.0122,-9.42404 -9.007,-3.43166 -12.8839,-4.33655 -18.5749,-4.33655 -6.52,0 -32.5516,2.75587 -36.5441,3.86964 -0.902,0.25153 -5.5804,0.75384 -10.394,1.11667 -4.8136,0.3621 -10.0348,0.90995 -11.601,1.21784 -1.5655,0.30718 -9.18475,0.97573 -16.93275,1.48527 -20.17217,1.38047 -21.38637,0.4192 -8.2394,-6.51928 z m 18.19905,3.46924 c 2.4075,-0.59555 7.8231,-1.39998 12.0353,-1.78738 4.2123,-0.3874 16.0286,-1.65006 26.2586,-2.80647 10.2306,-1.15641 21.7347,-2.43208 25.5654,-2.83538 6.0386,-0.6353 9.364,-2.06275 25.0045,-10.73657 16.5418,-9.17325 30.5712,-15.60508 36.7132,-16.83159 1.3393,-0.2667 6.3733,-1.80979 11.1876,-3.42732 11.3892,-3.82846 24.4632,-4.00914 33.9183,-0.46835 13.0314,4.88007 22.2436,10.82041 32.8935,21.2079 l 5.5406,5.40478 6.4948,-1.56333 c 7.4371,-1.79099 22.4662,-8.87692 25.1108,-11.84094 1.6862,-1.8893 1.439,-2.10395 -4.5874,-3.96506 -6.8134,-2.10539 -14.7045,-2.32077 -27.4337,-0.74877 -5.5957,0.69023 -8.8336,0.59555 -10.9853,-0.32163 -1.7129,-0.73071 -7.1856,-6.60095 -12.4755,-13.38114 -10.772,-13.80758 -23.1188,-26.06628 -29.6627,-29.4524 -6.9269,-3.58343 -15.78,-6.41375 -25.3782,-8.11224 -10.7467,-1.90158 -20.3897,-0.50809 -34.339,4.96391 -7.2586,2.84694 -10.9577,5.19157 -17.7119,11.22805 l -8.5358,7.62871 -9.9162,0 c -8.2438,0 -9.9155,0.29127 -9.9155,1.72739 0,1.9565 6.0661,7.94889 9.0034,8.89498 2.3179,0.74661 2.6077,3.80316 0.3599,3.80316 -1.074,0 -1.6862,1.50333 -1.9153,4.70226 -0.3,4.20067 -0.8015,4.95956 -4.7131,7.13218 -4.4912,2.49497 -17.7481,6.38267 -25.9955,7.62292 -2.552,0.38452 -8.5784,1.63344 -13.3927,2.77612 -4.8143,1.1434 -11.3379,2.41546 -14.49775,2.82599 -6.2923,0.8196 -7.2174,2.04829 -3.0081,3.99324 5.32885,2.46171 3.3558,4.59168 -12.0354,12.98723 l -3.2827,1.791 7.6598,0.33681 c 4.1992,0.16623 9.6199,-0.17347 12.02665,-0.76613 z m 187.6063,-50.92553 c 6.7303,5.84422 18.1268,9.56425 31.7631,10.36796 12.9431,0.76323 19.114,2.10901 23.202,5.06148 1.7505,1.2641 3.3752,2.10394 3.6094,1.86616 0.2349,-0.23851 0.7531,-4.91115 1.1528,-10.38532 l 0.7257,-9.95238 -3.6774,-2.1567 c -4.3778,-2.56869 -4.982,-3.17943 -8.8386,-8.94631 -3.2091,-4.79911 -5.8392,-11.40006 -4.9141,-12.33748 0.3144,-0.31874 2.1387,0.24213 4.0547,1.24676 4.7948,2.51448 6.5858,1.52791 6.4839,-3.56971 -0.1467,-7.30853 -2.4061,-12.81667 -6.3697,-15.52556 -2.0143,-1.37685 -4.1566,-2.19285 -4.7608,-1.81412 -0.6042,0.37871 0.1344,1.44695 1.6414,2.37498 3.9123,2.4075 6.2909,7.06929 6.2909,12.32737 0,3.66005 -0.3889,4.5447 -1.9977,4.5447 -4.32,0 -9.8931,-10.4359 -8.5257,-15.96284 0.3946,-1.59441 0.1301,-2.547 -0.7162,-2.57591 -0.7387,-0.0253 -2.6135,-0.39101 -4.1667,-0.81311 -2.4011,-0.65264 -3.2929,-0.1337 -5.9592,3.46707 -1.7245,2.32873 -8.0877,9.97696 -14.1415,16.99567 -19.0591,22.09471 -19.0663,22.10917 -14.8454,25.77355 z"
           id="path2385"
           inkscape:connector-curvature="0" />
      </g>
    </g>
  </g>
</svg>
