<?xml version="1.0" encoding="UTF-8" standalone="no"?>
<!-- Created with Inkscape (http://www.inkscape.org/) -->

<svg
   xmlns:dc="http://purl.org/dc/elements/1.1/"
   xmlns:cc="http://creativecommons.org/ns#"
   xmlns:rdf="http://www.w3.org/1999/02/22-rdf-syntax-ns#"
   xmlns:svg="http://www.w3.org/2000/svg"
   xmlns="http://www.w3.org/2000/svg"
   xmlns:xlink="http://www.w3.org/1999/xlink"
   xmlns:sodipodi="http://sodipodi.sourceforge.net/DTD/sodipodi-0.dtd"
   xmlns:inkscape="http://www.inkscape.org/namespaces/inkscape"
   width="566.46198"
   height="211.26396"
   id="svg2"
   version="1.1"
   inkscape:version="0.48.4 r9939"
   sodipodi:docname="workflow.svg">
  <defs
     id="defs4">
    <marker
       inkscape:stockid="Arrow2Mend"
       orient="auto"
       refY="0"
       refX="0"
       id="Arrow2Mend"
       style="overflow:visible">
      <path
         id="path4144"
         style="fill-rule:evenodd;stroke-width:0.625;stroke-linejoin:round"
         d="M 8.7185878,4.0337352 -2.2072895,0.01601326 8.7185884,-4.0017078 c -1.7454984,2.3720609 -1.7354408,5.6174519 -6e-7,8.035443 z"
         transform="scale(-0.6,-0.6)"
         inkscape:connector-curvature="0" />
    </marker>
    <radialGradient
       id="radialGradient3939"
       gradientUnits="userSpaceOnUse"
       cy="208.92999"
       cx="44.150002"
       gradientTransform="matrix(0.97242,-0.0035078,0.0020464,0.4093,0.79499,131.71)"
       r="74.726997">
      <stop
         id="stop3935"
         offset="0" />
      <stop
         id="stop3937"
         stop-opacity="0"
         offset="1" />
    </radialGradient>
    <linearGradient
       id="linearGradient3004"
       y2="536.85999"
       gradientUnits="userSpaceOnUse"
       x2="201.78"
       gradientTransform="translate(-18.561,-92.16)"
       y1="536.85999"
       x1="104.75">
      <stop
         id="stop2991"
         stop-color="#1f1f1f"
         offset="0" />
      <stop
         id="stop2997"
         offset=".5" />
      <stop
         id="stop2993"
         stop-color="#444"
         offset="1" />
    </linearGradient>
    <linearGradient
       id="linearGradient3012"
       y2="294.38"
       gradientUnits="userSpaceOnUse"
       x2="178.16"
       gradientTransform="translate(0,121)"
       y1="294.38"
       x1="81.905998">
      <stop
         id="stop3008"
         stop-color="#fff"
         offset="0" />
      <stop
         id="stop3014"
         stop-color="#7f7f7f"
         offset=".37675" />
      <stop
         id="stop3016"
         stop-color="#fff"
         offset=".80195" />
      <stop
         id="stop3010"
         stop-color="#ccc"
         offset="1" />
    </linearGradient>
    <linearGradient
       id="linearGradient3810"
       y2="394.70001"
       gradientUnits="userSpaceOnUse"
       x2="156.75"
       y1="394.70001"
       x1="65.223999">
      <stop
         id="stop3806"
         offset="0" />
      <stop
         id="stop3812"
         stop-color="#333"
         offset=".5" />
      <stop
         id="stop3808"
         offset="1" />
    </linearGradient>
    <radialGradient
       id="radialGradient3030"
       gradientUnits="userSpaceOnUse"
       cy="428.48999"
       cx="114.59"
       gradientTransform="matrix(0.79139,4.4167e-8,0,0.48101,26.015,198.55)"
       r="43.141998">
      <stop
         id="stop3028"
         offset="0" />
      <stop
         id="stop3026"
         stop-color="#242424"
         offset="1" />
    </radialGradient>
    <linearGradient
       id="linearGradient3113"
       y2="390.78"
       xlink:href="#linearGradient3101"
       gradientUnits="userSpaceOnUse"
       x2="183.78"
       y1="375.92999"
       x1="145.60001" />
    <linearGradient
       id="linearGradient3101">
      <stop
         id="stop3103"
         offset="0" />
      <stop
         id="stop3105"
         stop-opacity="0"
         offset="1" />
    </linearGradient>
    <linearGradient
       id="linearGradient3107"
       y2="405.20001"
       xlink:href="#linearGradient3101"
       gradientUnits="userSpaceOnUse"
       x2="116.81"
       y1="395.66"
       x1="113.01" />
    <linearGradient
       id="linearGradient3073">
      <stop
         id="stop3075"
         offset="0" />
      <stop
         id="stop3077"
         stop-opacity="0"
         offset="1" />
    </linearGradient>
    <linearGradient
       id="linearGradient3086"
       y2="459.14001"
       gradientUnits="userSpaceOnUse"
       x2="-128.62"
       gradientTransform="matrix(0.43846,7.9082e-4,-6.5324e-4,0.53081,112.57,94.231)"
       y1="459.14001"
       x1="-158.78">
      <stop
         id="stop3835"
         offset="0" />
      <stop
         id="stop3841"
         stop-color="#333"
         offset=".5" />
      <stop
         id="stop3837"
         offset="1" />
    </linearGradient>
    <linearGradient
       id="linearGradient3088"
       y2="463.51999"
       gradientUnits="userSpaceOnUse"
       x2="-281.16"
       gradientTransform="matrix(0.43846,7.9082e-4,-6.5324e-4,0.53081,179.45,93.091)"
       y1="463.51999"
       x1="-311.31">
      <stop
         id="stop3853"
         stop-color="#808080"
         offset="0" />
      <stop
         id="stop3859"
         stop-color="#fff"
         offset=".5" />
      <stop
         id="stop3855"
         stop-color="#808080"
         offset="1" />
    </linearGradient>
    <radialGradient
       inkscape:collect="always"
       xlink:href="#radialGradient3939"
       id="radialGradient4608"
       gradientUnits="userSpaceOnUse"
       gradientTransform="matrix(0.97242,-0.0035078,0.0020464,0.4093,0.79499,131.71)"
       cx="44.150002"
       cy="208.92999"
       r="74.726997" />
    <linearGradient
       inkscape:collect="always"
       xlink:href="#linearGradient3004"
       id="linearGradient4610"
       gradientUnits="userSpaceOnUse"
       gradientTransform="translate(-18.561,-92.16)"
       x1="104.75"
       y1="536.85999"
       x2="201.78"
       y2="536.85999" />
    <linearGradient
       inkscape:collect="always"
       xlink:href="#linearGradient3012"
       id="linearGradient4612"
       gradientUnits="userSpaceOnUse"
       gradientTransform="translate(0,121)"
       x1="81.905998"
       y1="294.38"
       x2="178.16"
       y2="294.38" />
    <linearGradient
       inkscape:collect="always"
       xlink:href="#linearGradient3810"
       id="linearGradient4614"
       gradientUnits="userSpaceOnUse"
       x1="65.223999"
       y1="394.70001"
       x2="156.75"
       y2="394.70001" />
    <radialGradient
       inkscape:collect="always"
       xlink:href="#radialGradient3030"
       id="radialGradient4616"
       gradientUnits="userSpaceOnUse"
       gradientTransform="matrix(0.79139,4.4167e-8,0,0.48101,26.015,198.55)"
       cx="114.59"
       cy="428.48999"
       r="43.141998" />
    <linearGradient
       inkscape:collect="always"
       xlink:href="#linearGradient3101"
       id="linearGradient4618"
       gradientUnits="userSpaceOnUse"
       x1="145.60001"
       y1="375.92999"
       x2="183.78"
       y2="390.78" />
    <linearGradient
       inkscape:collect="always"
       xlink:href="#linearGradient3101"
       id="linearGradient4620"
       gradientUnits="userSpaceOnUse"
       x1="113.01"
       y1="395.66"
       x2="116.81"
       y2="405.20001" />
    <linearGradient
       inkscape:collect="always"
       xlink:href="#linearGradient3086"
       id="linearGradient4622"
       gradientUnits="userSpaceOnUse"
       gradientTransform="matrix(0.43846,7.9082e-4,-6.5324e-4,0.53081,112.57,94.231)"
       x1="-158.78"
       y1="459.14001"
       x2="-128.62"
       y2="459.14001" />
    <linearGradient
       inkscape:collect="always"
       xlink:href="#linearGradient3088"
       id="linearGradient4624"
       gradientUnits="userSpaceOnUse"
       gradientTransform="matrix(0.43846,7.9082e-4,-6.5324e-4,0.53081,179.45,93.091)"
       x1="-311.31"
       y1="463.51999"
       x2="-281.16"
       y2="463.51999" />
  </defs>
  <sodipodi:namedview
     id="base"
     pagecolor="#ffffff"
     bordercolor="#666666"
     borderopacity="1.0"
     inkscape:pageopacity="0.0"
     inkscape:pageshadow="2"
     inkscape:zoom="0.98994949"
     inkscape:cx="300.75359"
     inkscape:cy="-1.8605728"
     inkscape:document-units="px"
     inkscape:current-layer="layer1"
     showgrid="false"
     inkscape:window-width="1440"
     inkscape:window-height="834"
     inkscape:window-x="0"
     inkscape:window-y="27"
     inkscape:window-maximized="1"
     fit-margin-top="0"
     fit-margin-left="0"
     fit-margin-right="0"
     fit-margin-bottom="0" />
  <metadata
     id="metadata7">
    <rdf:RDF>
      <cc:Work
         rdf:about="">
        <dc:format>image/svg+xml</dc:format>
        <dc:type
           rdf:resource="http://purl.org/dc/dcmitype/StillImage" />
        <dc:title></dc:title>
      </cc:Work>
    </rdf:RDF>
  </metadata>
  <g
     inkscape:label="Layer 1"
     inkscape:groupmode="layer"
     id="layer1"
     transform="translate(-58.068545,-89.615765)">
    <g
       id="g4577">
      <g
         transform="translate(-8.121831,8.0812204)"
         id="g3761">
        <rect
           style="color:#000000;fill:none;stroke:#000000;stroke-width:5;stroke-miterlimit:4;stroke-dasharray:none;marker:none;visibility:visible;display:inline;overflow:visible;enable-background:accumulate"
           id="rect2985"
           width="113.13708"
           height="73.741135"
           x="68.690376"
           y="150.29596"
           rx="30" />
        <text
           xml:space="preserve"
           style="font-size:16px;font-style:normal;font-variant:normal;font-weight:bold;font-stretch:normal;text-align:start;line-height:125%;letter-spacing:0px;word-spacing:0px;text-anchor:start;fill:#000000;fill-opacity:1;stroke:none;font-family:NexusSansPro;-inkscape-font-specification:Sans Bold"
           x="90.085602"
           y="195.01453"
           id="text3755"
           sodipodi:linespacing="125%"><tspan
             sodipodi:role="line"
             id="tspan3757"
             x="90.085602"
             y="195.01453"
             style="font-size:24px">CVDSL</tspan></text>
      </g>
      <g
         id="g3026"
         transform="translate(264.45938,120.54964)">
        <path
           id="path3163"
           d="m 121.07,222.51 a 74.727,23.283 0 1 1 -149.45,0 74.727,23.283 0 1 1 149.45,0 z"
           transform="matrix(0.9701,0.021413,-0.022757,1.095,41.702,-128.24)"
           inkscape:connector-curvature="0"
           style="opacity:0.61203996;fill:url(#radialGradient4608)" />
        <g
           id="g3127"
           transform="translate(-52.294,-358.7)">
          <path
             id="path2987"
             d="m 86.733,471.23 c -0.46056,-2.16 3.1458,-21.526 3.5479,-32.374 0.31222,-8.4256 -0.88697,-25.278 -0.88697,-25.278 l 88.253,-16.409 c 0,0 -1.9174,23.363 -1.3304,35.035 0.63187,12.565 9.5651,28.049 5.2087,37.383 -7.2196,15.468 -28.983,21.26 -46.009,22.487 -15.46,1.1145 -45.095,-3.5493 -48.783,-20.844 z"
             inkscape:connector-curvature="0"
             style="fill:url(#linearGradient4610);stroke:#000000;stroke-width:1px" />
          <path
             id="path2999"
             d="m 177.66,397.16 -88.25,16.438 c 0,0 0.32183,4.8797 0.59375,10.688 3.9165,2.604 8.2058,5.139 11.594,6.25 10.955,3.5924 23.012,3.4624 34.5,2.5 9.6509,-0.80842 19.609,-2.4407 28.219,-6.875 3.6804,-1.8955 8.4073,-6.0175 12.125,-9.5625 0.41274,-9.9125 1.2188,-19.438 1.2188,-19.438 z"
             inkscape:connector-curvature="0"
             style="fill:url(#linearGradient4612)" />
          <path
             id="path3018"
             d="m 68.04,410.07 c 4.5536,7.0311 14.377,9.3275 22.578,11.035 13.931,2.9002 28.613,0.46744 42.648,-1.8815 15.267,-2.5552 29.906,-8.0958 44.53,-13.171 9.5723,-3.322 18.059,-7.8023 28.223,-11.289 1.9685,-0.67531 -0.44425,-6.4687 -2.5087,-7.6829 -6.0823,-3.5773 -23.745,-6.689 -35.749,-9.5052 -10.801,-2.5339 -21.661,-4.8748 -32.613,-6.6446 -10.393,-1.6795 -20.881,-4.7916 -31.359,-3.7631 -8.0556,0.79075 -16.656,2.611 -23.087,7.5261 -6.3576,4.859 -11.007,12.366 -13.171,20.07 -1.3802,4.9149 -2.2663,11.022 0.50871,15.307 z"
             inkscape:connector-curvature="0"
             style="fill:#323232;stroke:url(#linearGradient4614);stroke-width:2" />
          <path
             id="path3022"
             d="m 110.62,382.5 c -2.0201,-0.13372 -3.8101,-0.11929 -5.3438,0.0312 -6.8196,0.66943 -12.607,2.441 -15.219,4.4375 -3.1416,2.4011 -6.3405,7.2833 -7.6562,11.969 -0.42043,1.4972 -0.33619,2.5198 -0.34375,3.1875 1.2034,0.55138 5.0541,2.4563 11.719,3.8438 10.125,2.1079 22.926,0.34514 36.938,-2 11.622,-1.9451 23.81,-6.2098 36.625,-10.688 -1.0352,-0.23266 -2.1289,-0.45383 -3.125,-0.6875 -10.606,-2.4881 -21.094,-4.7197 -31.531,-6.4062 -8.8068,-1.4231 -16.217,-3.3006 -22.062,-3.6875 z"
             transform="translate(7,0)"
             inkscape:connector-curvature="0"
             style="fill:url(#radialGradient4616);stroke:#1a1a1a;stroke-width:1px" />
          <path
             id="path3111"
             d="m 176.09,379.44 -26.75,8.4688 c 3.8885,0.74045 7.7759,1.5548 11.688,2.4062 l 25.188,-8.6562 c -3.3407,-0.76957 -6.7661,-1.492 -10.125,-2.2188 z"
             inkscape:connector-curvature="0"
             style="fill:url(#linearGradient4618)" />
          <path
             id="path3090"
             d="m 95.062,404.47 -24.188,8.875 c 2.33,2.0757 5.2266,3.5924 8.3438,4.75 l 30.844,-11.188 c -3.2906,-0.0476 -6.3922,-0.33604 -9.2812,-0.9375 -2.2314,-0.46455 -4.1119,-0.98966 -5.7188,-1.5 z"
             inkscape:connector-curvature="0"
             style="fill:url(#linearGradient4620)" />
          <g
             id="g3082"
             transform="matrix(0.29385,0.95585,-0.95585,0.29385,432.84,245.64)">
            <path
               id="path3879"
               d="m 43.445,286.93 -0.85501,100.79 13.222,0.0238 -0.60774,-100.79 z"
               inkscape:connector-curvature="0"
               style="fill:url(#linearGradient4622)" />
            <path
               id="path3883"
               d="m 47.827,271.01 c -2.4161,-0.004 -4.1845,2.3545 -4.3692,5.2736 l -0.01327,10.784 11.76,0.0212 0.01327,-10.784 c 0.0036,-2.9249 -1.9401,-5.285 -4.3562,-5.2893 l -3.0344,-0.004 z m -5.2375,116.86 -0.01717,13.95 c -0.004,3.2887 2.1814,5.9423 4.898,5.9472 l 3.4118,0.005 c 2.7166,0.004 4.9086,-2.6408 4.9126,-5.9295 l 0.01717,-13.95 -13.222,-0.0238 z"
               inkscape:connector-curvature="0"
               style="fill:url(#linearGradient4624)" />
          </g>
        </g>
      </g>
      <g
         transform="translate(0,13.560942)"
         id="g4567">
        <g
           id="g3907"
           transform="translate(0.203051,-71.741136)">
          <rect
             style="color:#000000;fill:none;stroke:#000000;stroke-width:5;stroke-miterlimit:4;stroke-dasharray:none;marker:none;visibility:visible;display:inline;overflow:visible;enable-background:accumulate"
             id="rect3879"
             width="113.13708"
             height="73.741135"
             x="508.69037"
             y="150.29596"
             rx="30" />
          <text
             xml:space="preserve"
             style="font-size:16px;font-style:normal;font-variant:normal;font-weight:bold;font-stretch:normal;text-align:start;line-height:125%;letter-spacing:0px;word-spacing:0px;text-anchor:start;fill:#000000;fill-opacity:1;stroke:none;font-family:NexusSansPro;-inkscape-font-specification:Sans Bold"
             x="534.52448"
             y="194.93053"
             id="text3881"
             sodipodi:linespacing="125%"><tspan
               sodipodi:role="line"
               id="tspan3883"
               x="534.52448"
               y="194.93053"
               style="font-size:24px">LaTeX</tspan></text>
        </g>
        <g
           id="g3902"
           transform="translate(0.203051,-119.21831)">
          <rect
             rx="30"
             y="330.29596"
             x="508.69037"
             height="73.741135"
             width="113.13708"
             id="rect3888"
             style="color:#000000;fill:none;stroke:#000000;stroke-width:5;stroke-miterlimit:4;stroke-dasharray:none;marker:none;visibility:visible;display:inline;overflow:visible;enable-background:accumulate" />
          <text
             sodipodi:linespacing="125%"
             id="text3890"
             y="374.90652"
             x="532.33185"
             style="font-size:16px;font-style:normal;font-variant:normal;font-weight:bold;font-stretch:normal;text-align:start;line-height:125%;letter-spacing:0px;word-spacing:0px;text-anchor:start;fill:#000000;fill-opacity:1;stroke:none;font-family:NexusSansPro;-inkscape-font-specification:Sans Bold"
             xml:space="preserve"><tspan
               style="font-size:24px"
               y="374.90652"
               x="532.33185"
               id="tspan3892"
               sodipodi:role="line">HTML</tspan></text>
        </g>
      </g>
      <path
         inkscape:connector-curvature="0"
         id="path3931"
         d="m 188.89853,195.29579 76.77159,0"
         style="fill:none;stroke:#000000;stroke-width:5;stroke-linecap:round;stroke-linejoin:miter;stroke-miterlimit:4;stroke-opacity:1;stroke-dasharray:none;marker-end:url(#Arrow2Mend)" />
      <g
         transform="translate(0,28.591248)"
         id="g4563">
        <path
           inkscape:connector-curvature="0"
           id="path4557"
           d="M 425.04696,132.68021 491.53311,94.294413"
           style="fill:none;stroke:#000000;stroke-width:5;stroke-linecap:round;stroke-linejoin:miter;stroke-miterlimit:4;stroke-opacity:1;stroke-dasharray:none;marker-end:url(#Arrow2Mend)" />
        <path
           style="fill:none;stroke:#000000;stroke-width:5;stroke-linecap:round;stroke-linejoin:miter;stroke-miterlimit:4;stroke-opacity:1;stroke-dasharray:none;marker-end:url(#Arrow2Mend)"
           d="m 427.06727,200.71599 66.48615,38.3858"
           id="path4561"
           inkscape:connector-curvature="0" />
      </g>
    </g>
  </g>
</svg>
